<svg width="26" height="20" viewBox="0 0 26 20" fill="none" xmlns="http://www.w3.org/2000/svg">
<path d="M24.6909 0.246067L1.87768 0.246069C1.64671 0.246794 1.42031 0.310498 1.22285 0.430321C1.02539 0.550146 0.864346 0.721554 0.757056 0.926096C0.649765 1.13064 0.600291 1.36057 0.613957 1.59114C0.627625 1.82171 0.703913 2.04418 0.834616 2.23462L12.2412 18.7108C12.7139 19.3939 13.8521 19.3939 14.3261 18.7108L25.7327 2.23462C25.8647 2.04458 25.9421 1.82199 25.9565 1.59104C25.9709 1.36008 25.9218 1.1296 25.8144 0.924624C25.707 0.719648 25.5455 0.548021 25.3474 0.428391C25.1493 0.30876 24.9223 0.245703 24.6909 0.246067Z" fill="#8B8B8B"/>
</svg>
