<svg width="26" height="20" viewBox="0 0 26 20" fill="none" xmlns="http://www.w3.org/2000/svg">
<path d="M24.6153 0.919407L1.80217 0.919409C1.5712 0.920134 1.3448 0.983837 1.14733 1.10366C0.949873 1.22349 0.78883 1.39489 0.68154 1.59944C0.57425 1.80398 0.524775 2.03391 0.538441 2.26448C0.552109 2.49505 0.628397 2.71752 0.7591 2.90796L12.1657 19.3841C12.6384 20.0673 13.7766 20.0673 14.2506 19.3841L25.6571 2.90796C25.7892 2.71792 25.8666 2.49533 25.881 2.26438C25.8954 2.03342 25.8463 1.80294 25.7389 1.59796C25.6315 1.39299 25.47 1.22136 25.2719 1.10173C25.0738 0.9821 24.8467 0.919043 24.6153 0.919407Z" fill="black"/>
</svg>
