<svg width="35" height="35" viewBox="0 0 35 35" fill="none" xmlns="http://www.w3.org/2000/svg">
<path d="M1.44067 17.3173C1.44067 11.2802 1.44067 8.26085 3.31696 6.38617C5.19324 4.51149 8.21098 4.50989 14.2481 4.50989H20.6518C26.6889 4.50989 29.7082 4.50989 31.5829 6.38617C33.4576 8.26245 33.4592 11.2802 33.4592 17.3173V20.5191C33.4592 26.5562 33.4592 29.5756 31.5829 31.4502C29.7066 33.3249 26.6889 33.3265 20.6518 33.3265H14.2481C8.21098 33.3265 5.19164 33.3265 3.31696 31.4502C1.44227 29.574 1.44067 26.5562 1.44067 20.5191V17.3173Z" stroke="#8B8B8B" stroke-width="2.40139"/>
<path opacity="0.5" d="M9.44525 4.50991V2.10852M25.4545 4.50991V2.10852M2.24109 12.5145H32.6587" stroke="#8B8B8B" stroke-width="2.40139" stroke-linecap="round"/>
<path d="M27.0555 25.322C27.0555 25.7466 26.8868 26.1538 26.5866 26.454C26.2863 26.7543 25.8791 26.9229 25.4545 26.9229C25.0299 26.9229 24.6227 26.7543 24.3225 26.454C24.0223 26.1538 23.8536 25.7466 23.8536 25.322C23.8536 24.8974 24.0223 24.4902 24.3225 24.19C24.6227 23.8897 25.0299 23.7211 25.4545 23.7211C25.8791 23.7211 26.2863 23.8897 26.5866 24.19C26.8868 24.4902 27.0555 24.8974 27.0555 25.322ZM27.0555 18.9183C27.0555 19.3429 26.8868 19.7501 26.5866 20.0503C26.2863 20.3506 25.8791 20.5192 25.4545 20.5192C25.0299 20.5192 24.6227 20.3506 24.3225 20.0503C24.0223 19.7501 23.8536 19.3429 23.8536 18.9183C23.8536 18.4937 24.0223 18.0865 24.3225 17.7863C24.6227 17.4861 25.0299 17.3174 25.4545 17.3174C25.8791 17.3174 26.2863 17.4861 26.5866 17.7863C26.8868 18.0865 27.0555 18.4937 27.0555 18.9183ZM19.0508 25.322C19.0508 25.7466 18.8822 26.1538 18.5819 26.454C18.2817 26.7543 17.8745 26.9229 17.4499 26.9229C17.0253 26.9229 16.6181 26.7543 16.3179 26.454C16.0177 26.1538 15.849 25.7466 15.849 25.322C15.849 24.8974 16.0177 24.4902 16.3179 24.19C16.6181 23.8897 17.0253 23.7211 17.4499 23.7211C17.8745 23.7211 18.2817 23.8897 18.5819 24.19C18.8822 24.4902 19.0508 24.8974 19.0508 25.322ZM19.0508 18.9183C19.0508 19.3429 18.8822 19.7501 18.5819 20.0503C18.2817 20.3506 17.8745 20.5192 17.4499 20.5192C17.0253 20.5192 16.6181 20.3506 16.3179 20.0503C16.0177 19.7501 15.849 19.3429 15.849 18.9183C15.849 18.4937 16.0177 18.0865 16.3179 17.7863C16.6181 17.4861 17.0253 17.3174 17.4499 17.3174C17.8745 17.3174 18.2817 17.4861 18.5819 17.7863C18.8822 18.0865 19.0508 18.4937 19.0508 18.9183ZM11.0462 25.322C11.0462 25.7466 10.8775 26.1538 10.5773 26.454C10.2771 26.7543 9.86988 26.9229 9.44528 26.9229C9.02069 26.9229 8.61349 26.7543 8.31326 26.454C8.01303 26.1538 7.84436 25.7466 7.84436 25.322C7.84436 24.8974 8.01303 24.4902 8.31326 24.19C8.61349 23.8897 9.02069 23.7211 9.44528 23.7211C9.86988 23.7211 10.2771 23.8897 10.5773 24.19C10.8775 24.4902 11.0462 24.8974 11.0462 25.322ZM11.0462 18.9183C11.0462 19.3429 10.8775 19.7501 10.5773 20.0503C10.2771 20.3506 9.86988 20.5192 9.44528 20.5192C9.02069 20.5192 8.61349 20.3506 8.31326 20.0503C8.01303 19.7501 7.84436 19.3429 7.84436 18.9183C7.84436 18.4937 8.01303 18.0865 8.31326 17.7863C8.61349 17.4861 9.02069 17.3174 9.44528 17.3174C9.86988 17.3174 10.2771 17.4861 10.5773 17.7863C10.8775 18.0865 11.0462 18.4937 11.0462 18.9183Z" fill="#8B8B8B"/>
</svg>
