<svg width="24" height="22" viewBox="0 0 24 22" fill="none" xmlns="http://www.w3.org/2000/svg">
<path d="M1.37692 11C1.37692 7.229 1.37692 5.343 2.60472 4.172C3.83251 3.001 5.80725 3 9.75778 3H13.9482C17.8987 3 19.8745 3 21.1013 4.172C22.328 5.344 22.3291 7.229 22.3291 11V13C22.3291 16.771 22.3291 18.657 21.1013 19.828C19.8735 20.999 17.8987 21 13.9482 21H9.75778C5.80725 21 3.83147 21 2.60472 19.828C1.37797 18.656 1.37692 16.771 1.37692 13V11Z" stroke="#FF3939" stroke-width="1.5"/>
<path opacity="0.5" d="M6.61496 3V1.5M17.091 3V1.5M1.90073 8H21.8053" stroke="#FF3939" stroke-width="1.5" stroke-linecap="round"/>
<path d="M18.1386 16C18.1386 16.2652 18.0283 16.5196 17.8318 16.7071C17.6353 16.8946 17.3689 17 17.091 17C16.8132 17 16.5467 16.8946 16.3503 16.7071C16.1538 16.5196 16.0434 16.2652 16.0434 16C16.0434 15.7348 16.1538 15.4804 16.3503 15.2929C16.5467 15.1054 16.8132 15 17.091 15C17.3689 15 17.6353 15.1054 17.8318 15.2929C18.0283 15.4804 18.1386 15.7348 18.1386 16ZM18.1386 12C18.1386 12.2652 18.0283 12.5196 17.8318 12.7071C17.6353 12.8946 17.3689 13 17.091 13C16.8132 13 16.5467 12.8946 16.3503 12.7071C16.1538 12.5196 16.0434 12.2652 16.0434 12C16.0434 11.7348 16.1538 11.4804 16.3503 11.2929C16.5467 11.1054 16.8132 11 17.091 11C17.3689 11 17.6353 11.1054 17.8318 11.2929C18.0283 11.4804 18.1386 11.7348 18.1386 12ZM12.9006 16C12.9006 16.2652 12.7902 16.5196 12.5938 16.7071C12.3973 16.8946 12.1308 17 11.853 17C11.5752 17 11.3087 16.8946 11.1122 16.7071C10.9158 16.5196 10.8054 16.2652 10.8054 16C10.8054 15.7348 10.9158 15.4804 11.1122 15.2929C11.3087 15.1054 11.5752 15 11.853 15C12.1308 15 12.3973 15.1054 12.5938 15.2929C12.7902 15.4804 12.9006 15.7348 12.9006 16ZM12.9006 12C12.9006 12.2652 12.7902 12.5196 12.5938 12.7071C12.3973 12.8946 12.1308 13 11.853 13C11.5752 13 11.3087 12.8946 11.1122 12.7071C10.9158 12.5196 10.8054 12.2652 10.8054 12C10.8054 11.7348 10.9158 11.4804 11.1122 11.2929C11.3087 11.1054 11.5752 11 11.853 11C12.1308 11 12.3973 11.1054 12.5938 11.2929C12.7902 11.4804 12.9006 11.7348 12.9006 12ZM7.66257 16C7.66257 16.2652 7.55219 16.5196 7.35573 16.7071C7.15927 16.8946 6.8928 17 6.61496 17C6.33712 17 6.07065 16.8946 5.87419 16.7071C5.67773 16.5196 5.56735 16.2652 5.56735 16C5.56735 15.7348 5.67773 15.4804 5.87419 15.2929C6.07065 15.1054 6.33712 15 6.61496 15C6.8928 15 7.15927 15.1054 7.35573 15.2929C7.55219 15.4804 7.66257 15.7348 7.66257 16ZM7.66257 12C7.66257 12.2652 7.55219 12.5196 7.35573 12.7071C7.15927 12.8946 6.8928 13 6.61496 13C6.33712 13 6.07065 12.8946 5.87419 12.7071C5.67773 12.5196 5.56735 12.2652 5.56735 12C5.56735 11.7348 5.67773 11.4804 5.87419 11.2929C6.07065 11.1054 6.33712 11 6.61496 11C6.8928 11 7.15927 11.1054 7.35573 11.2929C7.55219 11.4804 7.66257 11.7348 7.66257 12Z" fill="#FF3939"/>
</svg>
