<svg width="40" height="40" viewBox="0 0 40 40" fill="none" xmlns="http://www.w3.org/2000/svg">
<path d="M20 0.666656C9.32077 0.666656 0.666687 9.32316 0.666687 20C0.666687 30.6768 9.32077 39.3333 20 39.3333C30.6793 39.3333 39.3334 30.6768 39.3334 20C39.3334 9.32316 30.6793 0.666656 20 0.666656ZM28.9586 25.5414C29.4117 25.9946 29.6663 26.6091 29.6663 27.25C29.6663 27.8908 29.4117 28.5054 28.9586 28.9586C28.5055 29.4117 27.8909 29.6663 27.25 29.6663C26.6092 29.6663 25.9946 29.4117 25.5414 28.9586L20 23.4172L14.4586 28.9586C14.2347 29.1838 13.9685 29.3625 13.6752 29.4844C13.382 29.6064 13.0676 29.6692 12.75 29.6692C12.4325 29.6692 12.118 29.6064 11.8248 29.4844C11.5316 29.3625 11.2654 29.1838 11.0414 28.9586C10.5884 28.5054 10.3339 27.8908 10.3339 27.25C10.3339 26.6092 10.5884 25.9946 11.0414 25.5414L16.5829 20L11.0414 14.4586C10.5883 14.0054 10.3337 13.3908 10.3337 12.75C10.3337 12.1091 10.5883 11.4946 11.0414 11.0414C11.4946 10.5883 12.1092 10.3337 12.75 10.3337C13.3909 10.3337 14.0055 10.5883 14.4586 11.0414L20 16.5828L25.5414 11.0414C25.9946 10.5883 26.6092 10.3337 27.25 10.3337C27.8909 10.3337 28.5055 10.5883 28.9586 11.0414C29.4117 11.4946 29.6663 12.1091 29.6663 12.75C29.6663 13.3908 29.4117 14.0054 28.9586 14.4586L23.4172 20L28.9586 25.5414Z" fill="black"/>
</svg>
