<svg width="41" height="40" viewBox="0 0 41 40" fill="none" xmlns="http://www.w3.org/2000/svg">
<path d="M20.095 39.1667C9.00526 39.1667 0.0158272 30.5858 0.0158272 20C0.0158272 9.41426 9.00526 0.833344 20.095 0.833344C31.1847 0.833344 40.1741 9.41426 40.1741 20C40.1741 30.5858 31.1847 39.1667 20.095 39.1667ZM20.095 35.3333C24.3552 35.3333 28.441 33.7179 31.4534 30.8423C34.4659 27.9668 36.1583 24.0667 36.1583 20C36.1583 15.9334 34.4659 12.0333 31.4534 9.15771C28.441 6.28215 24.3552 4.66668 20.095 4.66668C15.8347 4.66668 11.7489 6.28215 8.73649 9.15771C5.72404 12.0333 4.03166 15.9334 4.03166 20C4.03166 24.0667 5.72404 27.9668 8.73649 30.8423C11.7489 33.7179 15.8347 35.3333 20.095 35.3333Z" fill="black"/>
</svg>
